Coordinates
version=1
nRows=29
nColumns=24
inDegrees=yes

Units are S.I. units (second, meters, Newtons, ...)
Angles are in degrees.

endheader
time	pelvis_tilt	pelvis_list	pelvis_rotation	pelvis_tx	pelvis_ty	pelvis_tz	hip_flexion_r	hip_adduction_r	hip_rotation_r	knee_angle_r	ankle_angle_r	subtalar_angle_r	mtp_angle_r	hip_flexion_l	hip_adduction_l	hip_rotation_l	knee_angle_l	ankle_angle_l	subtalar_angle_l	mtp_angle_l	lumbar_extension	lumbar_bending	lumbar_rotation
      0.81650000	      0.55677572	     -5.63712174	      3.87247736	     -0.45828632	      1.00483762	      0.31393160	      8.91583076	      9.22696046	     -0.76231123	    -17.12207356	     10.06237935	    -13.53530280	     -4.22638138	     13.31985527	     -6.12766885	     -0.92010296	    -70.98575437	     -6.52986115	     -7.67420412	     -0.75624824	    -11.00532598	     15.32118016	     -4.05722743
      0.82066667	      0.62037824	     -5.41630372	      3.88962433	     -0.45342350	      1.00591180	      0.31420377	      8.30186985	      9.05498576	     -0.61700810	    -16.66871380	     10.08364799	    -13.60753805	     -4.23451167	     13.83197747	     -5.92295945	     -0.97267903	    -70.88608096	     -6.09381748	     -8.01354162	     -0.85940017	    -11.11919225	     14.97321299	     -3.78779448
      0.82483333	      0.69490029	     -5.19890732	      3.90369352	     -0.44857291	      1.00696154	      0.31446915	      7.67302259	      8.88486601	     -0.47937503	    -16.20531919	     10.09785639	    -13.67326871	     -4.24331714	     14.32288221	     -5.72098093	     -1.02792103	    -70.73941562	     -5.65270963	     -8.32032905	     -0.96054982	    -11.24873017	     14.63466310	     -3.52497372
      0.82900000	      0.76334610	     -4.98017387	      3.90734438	     -0.44371473	      1.00798795	      0.31474769	      7.04506548	      8.71293699	     -0.33654819	    -15.73104457	     10.10408324	    -13.73926850	     -4.25358458	     14.80518322	     -5.51905907	     -1.09544081	    -70.53809473	     -5.22973718	     -8.61732508	     -1.07947562	    -11.36944897	     14.28683877	     -3.24165223
      0.83316667	      0.81715721	     -4.74111468	      3.91194856	     -0.43888475	      1.00894864	      0.31498957	      6.45077471	      8.50845821	     -0.24098160	    -15.29543385	     10.10770562	    -13.75093904	     -4.26064910	     15.29170378	     -5.28178604	     -1.15309741	    -70.28905691	     -4.76874760	     -8.87727882	     -1.14446195	    -11.47319258	     13.93051576	     -3.07029356
      0.83733333	      0.90980094	     -4.51709373	      3.90716394	     -0.43401637	      1.00995251	      0.31525594	      5.77935837	      8.32891525	     -0.09376039	    -14.78706854	     10.14140085	    -13.80713775	     -4.27153266	     15.71689978	     -5.07222007	     -1.22656254	    -69.97684224	     -4.38574858	     -9.11697817	     -1.25993014	    -11.61939165	     13.58346808	     -2.72802862
      0.84150000	      0.97717047	     -4.29280388	      3.89263595	     -0.42916312	      1.01086624	      0.31551337	      5.15180743	      8.14058981	      0.02464434	    -14.31162096	     10.14290117	    -13.82634683	     -4.28606460	     16.15955302	     -4.85912727	     -1.30720671	    -69.62773108	     -3.94237111	     -9.33458321	     -1.40769302	    -11.74586886	     13.23580036	     -2.44281954
      0.84566667	      1.02543017	     -4.03951323	      3.89536320	     -0.42434696	      1.01173604	      0.31572544	      4.55756424	      7.91261935	      0.09430179	    -13.86235415	     10.15632576	    -13.81415482	     -4.29475194	     16.61144491	     -4.59237198	     -1.35272638	    -69.22071008	     -3.51257629	     -9.49662841	     -1.47778169	    -11.84282761	     12.86361772	     -2.28874400
      0.84983333	      1.07916426	     -3.80031052	      3.88888528	     -0.41950903	      1.01256601	      0.31594398	      3.94701963	      7.69922953	      0.17681592	    -13.39176568	     10.18121031	    -13.79598198	     -4.30427093	     17.04277181	     -4.34548512	     -1.40707763	    -68.76755795	     -3.08805844	     -9.65030313	     -1.55327689	    -11.95031987	     12.50717772	     -2.06047124
      0.85400000	      1.14141504	     -3.57307105	      3.88156182	     -0.41467886	      1.01335678	      0.31614363	      3.32522268	      7.49679188	      0.25442637	    -12.91282037	     10.20942424	    -13.77332808	     -4.31500211	     17.45430796	     -4.10981520	     -1.45742124	    -68.27188600	     -2.65637135	     -9.75921070	     -1.63460427	    -12.06735637	     12.16952218	     -1.81433018
      0.85816667	      1.23577404	     -3.34884002	      3.86929031	     -0.40982044	      1.01415022	      0.31634458	      2.66186869	      7.29756157	      0.31707645	    -12.42139321	     10.25749422	    -13.75001836	     -4.33006841	     17.81210229	     -3.88754999	     -1.52561456	    -67.72290674	     -2.22858653	     -9.84851874	     -1.75125599	    -12.20269655	     11.83205711	     -1.52881940
      0.86233333	      1.22029389	     -3.13733291	      3.86465165	     -0.40500597	      1.01472094	      0.31650293	      2.14644360	      7.09718870	      0.33418666	    -11.98177817	     10.25869467	    -13.69588227	     -4.33781387	     18.29291328	     -3.65316693	     -1.55788628	    -67.15296687	     -1.76331460	     -9.91631259	     -1.79525790	    -12.20219736	     11.52742730	     -1.41432350
      0.86650000	      1.31689614	     -2.90959588	      3.85804928	     -0.40018007	      1.01543825	      0.31666165	      1.48178797	      6.88953588	      0.39540719	    -11.48976128	     10.31675640	    -13.64630725	     -4.35340191	     18.62258433	     -3.40761179	     -1.59149941	    -66.50807446	     -1.33851027	     -9.92580951	     -1.90605866	    -12.37878515	     11.18289751	     -1.11930312
      0.87066667	      1.31916427	     -2.69924012	      3.85416700	     -0.39538363	      1.01594922	      0.31677918	      0.94750057	      6.68676397	      0.41021444	    -11.04779655	     10.32156481	    -13.58007659	     -4.36427268	     19.05320079	     -3.15966639	     -1.59684942	    -65.83800047	     -0.88112918	     -9.92563062	     -1.97206022	    -12.41885878	     10.89454542	     -0.97017602
      0.87483333	      1.41263166	     -2.50524050	      3.85272288	     -0.39056042	      1.01653684	      0.31690646	      0.29039750	      6.50995258	      0.43323453	    -10.55432896	     10.37271286	    -13.50854443	     -4.38004953	     19.36908863	     -2.94977388	     -1.62000539	    -65.12185922	     -0.43267463	     -9.88397169	     -2.08150408	    -12.57231958	     10.59062672	     -0.72790753
      0.87900000	      1.45253914	     -2.29455347	      3.84949013	     -0.38575179	      1.01702169	      0.31700346	     -0.29159470	      6.30601668	      0.43129642	    -10.09762834	     10.40534677	    -13.42553938	     -4.39464440	     19.72519337	     -2.70163315	     -1.62339240	    -64.35086862	      0.00287051	     -9.83462472	     -2.18158176	    -12.66106926	     10.28724924	     -0.54954649
      0.88316667	      1.46088546	     -2.11369486	      3.83952254	     -0.38094584	      1.01738464	      0.31708697	     -0.83128396	      6.12966922	      0.43316507	     -9.65330587	     10.43104002	    -13.31991038	     -4.41379091	     20.10875918	     -2.48188686	     -1.61963627	    -63.55317761	      0.45974633	     -9.78065503	     -2.32244120	    -12.71863094	     10.01923434	     -0.34499148
      0.88733333	      1.50051280	     -1.93161091	      3.84711628	     -0.37613652	      1.01775416	      0.31714405	     -1.41071491	      5.95379411	      0.40913544	     -9.19617592	     10.47650672	    -13.22573601	     -4.42699432	     20.44317095	     -2.25487730	     -1.59167992	    -62.70279276	      0.87520179	     -9.67207982	     -2.42169865	    -12.80017201	      9.75309350	     -0.20215866
      0.89150000	      1.53385536	     -1.74563204	      3.84459757	     -0.37132371	      1.01807704	      0.31718926	     -1.97747760	      5.76968133	      0.37983367	     -8.75197301	     10.51621451	    -13.10551655	     -4.43904914	     20.76311251	     -2.01884704	     -1.56376213	    -61.80004269	      1.28141061	     -9.58072921	     -2.51992546	    -12.88077099	      9.48959692	     -0.04275689
      0.89566667	      1.54278702	     -1.58301014	      3.84634038	     -0.36651610	      1.01828363	      0.31721709	     -2.50968898	      5.60817700	      0.34056209	     -8.32099641	     10.56515422	    -12.98222436	     -4.44855811	     21.10423393	     -1.80185155	     -1.51763346	    -60.87057193	      1.68034360	     -9.45887652	     -2.60930138	    -12.93335410	      9.25146258	      0.11077989
      0.89983333	      1.57205625	     -1.41083182	      3.84170234	     -0.36169767	      1.01850195	      0.31723002	     -3.06650728	      5.43497109	      0.29699048	     -7.88567730	     10.61415106	    -12.83522951	     -4.45726454	     21.39680213	     -1.57196348	     -1.47155603	    -59.87866653	      2.05028933	     -9.35506979	     -2.70406026	    -13.01398577	      9.00591972	      0.26679092
      0.90400000	      1.53824636	     -1.26430213	      3.83738021	     -0.35687663	      1.01856505	      0.31723346	     -3.53861149	      5.28373913	      0.24635090	     -7.48237526	     10.62893516	    -12.70915653	     -4.46199180	     21.74923445	     -1.35795687	     -1.39891352	    -58.85564235	      2.40505049	     -9.23988197	     -2.75319519	    -13.00326488	      8.79821073	      0.37208736
      0.90816667	      1.56874201	     -1.10473758	      3.83247599	     -0.35203330	      1.01869831	      0.31722795	     -4.09446584	      5.12152552	      0.18638913	     -7.05192489	     10.66718978	    -12.55362385	     -4.46579556	     22.00332679	     -1.13495109	     -1.32930729	    -57.76870995	      2.73152217	     -9.11609002	     -2.80929425	    -13.08005283	      8.57064214	      0.51074231
      0.91233333	      1.57370332	     -0.97372470	      3.82848907	     -0.34718865	      1.01870926	      0.31721679	     -4.61663333	      4.98847280	      0.12894954	     -6.63209588	     10.72530666	    -12.39039827	     -4.46789055	     22.27956930	     -0.93893259	     -1.24432646	    -56.65846155	      3.02778997	     -9.00230868	     -2.86388905	    -13.12791210	      8.37601031	      0.65341404
      0.91650000	      1.62319055	     -0.84338730	      3.82138625	     -0.34233556	      1.01873218	      0.31720033	     -5.19194110	      4.85765577	      0.06595341	     -6.20428094	     10.84127628	    -12.18403953	     -4.46944319	     22.48686272	     -0.74686646	     -1.15781057	    -55.49843407	      3.27406138	     -8.90988667	     -2.95779524	    -13.24515561	      8.17626602	      0.84567474
      0.92066667	      1.65052903	     -0.71270449	      3.81155571	     -0.33746984	      1.01870046	      0.31716693	     -5.73586275	      4.72262545	     -0.00876896	     -5.79271245	     10.91127008	    -11.98390738	     -4.47090664	     22.69423213	     -0.54648595	     -1.05616077	    -54.28348917	      3.49853091	     -8.82454084	     -3.05396609	    -13.32084435	      7.98628056	      0.99161436
      0.92483333	      1.65307603	     -0.59417432	      3.79972892	     -0.33259346	      1.01857768	      0.31713138	     -6.24881045	      4.59856938	     -0.08786463	     -5.38979610	     10.98628228	    -11.78172806	     -4.47159332	     22.91294588	     -0.35644437	     -0.94330328	    -53.02954784	      3.68734324	     -8.74822783	     -3.14810105	    -13.36798479	      7.80789145	      1.13307750
      0.92900000	      1.61894628	     -0.48027551	      3.78368432	     -0.32769619	      1.01836206	      0.31709722	     -6.71446087	      4.47675142	     -0.16410499	     -5.00518193	     11.02935862	    -11.60457836	     -4.47170319	     23.14931542	     -0.16686464	     -0.81668326	    -51.72763157	      3.85014734	     -8.66550680	     -3.20334945	    -13.34799149	      7.63569920	      1.23691540
      0.93316667	      1.65376252	     -0.36946637	      3.77252776	     -0.32279371	      1.01818190	      0.31704976	     -7.26815606	      4.36272501	     -0.25546728	     -4.59480499	     11.14516440	    -11.36160245	     -4.47005037	     23.29327471	      0.01524840	     -0.68396050	    -50.38269076	      3.94988076	     -8.63816571	     -3.28794437	    -13.44481617	      7.46472119	      1.39729440
